Coordinates
version=1
nRows=8
nColumns=40
inDegrees=yes

Units are S.I. units (second, meters, Newtons, ...)
Angles are in degrees.

endheader
time	pelvis_tilt	pelvis_list	pelvis_rotation	pelvis_tx	pelvis_ty	pelvis_tz	hip_flexion_r	hip_adduction_r	hip_rotation_r	knee_angle_r	knee_angle_r_beta	ankle_angle_r	subtalar_angle_r	mtp_angle_r	hip_flexion_l	hip_adduction_l	hip_rotation_l	knee_angle_l	knee_angle_l_beta	ankle_angle_l	subtalar_angle_l	mtp_angle_l	lumbar_extension	lumbar_bending	lumbar_rotation	arm_flex_r	arm_add_r	arm_rot_r	elbow_flex_r	pro_sup_r	wrist_flex_r	wrist_dev_r	arm_flex_l	arm_add_l	arm_rot_l	elbow_flex_l	pro_sup_l	wrist_flex_l	wrist_dev_l
     23.36000000	     -5.09326319	     -4.73415994	      2.90266329	      1.08419510	      0.91174672	      0.42699275	      7.99495335	     -1.99515702	    -11.10377595	     39.64152498	     39.64152498	     13.46486107	     -8.24265518	    -14.36017271	     30.95329350	     -6.74100249	     -3.35106908	     30.44463720	     30.44463720	      7.94066243	    -16.70346502	      6.78062773	    -11.39398247	      3.10983080	      4.00376435	     42.10327993	    -13.44915134	      8.07930024	    120.47722893	     43.48397428	      0.00000000	      0.00000000	    -14.67737186	     -6.55362626	     -2.81066983	     25.19617923	     45.52119357	      0.00000000	      0.00000000
     23.37142857	     -5.07154986	     -4.52061767	      2.64803404	      1.08406844	      0.91288294	      0.42445042	      9.92017817	     -2.89085043	    -10.81269108	     43.75135222	     43.75135222	     11.16908500	     -9.81820844	    -14.63033475	     30.18764709	     -6.53230951	     -3.81837574	     30.32370419	     30.32370419	      8.56067247	    -16.53208827	      6.42034920	    -11.42297958	      2.93944193	      3.63936592	     40.27300415	    -13.49096202	      8.61091805	    120.63916115	     43.46291517	      0.00000000	      0.00000000	    -13.69474757	     -6.50380066	     -2.77086570	     25.57453389	     45.53560733	      0.00000000	      0.00000000
     23.38285714	     -4.98368175	     -4.31491300	      2.44003441	      1.08382002	      0.91413748	      0.42200755	     11.84127582	     -3.75529118	    -10.57112281	     47.78264029	     47.78264029	      8.56686168	    -11.46370523	    -14.58185209	     29.34858954	     -6.32266040	     -4.28241453	     30.16808385	     30.16808385	      9.08555345	    -16.33857508	      6.07717496	    -11.54059964	      2.76583145	      3.30446376	     38.25947167	    -13.57391451	      9.08560763	    120.61917401	     43.44687592	      0.00000000	      0.00000000	    -12.55614017	     -6.50309552	     -2.75002513	     26.02676785	     45.55498480	      0.00000000	      0.00000000
     23.39428571	     -4.96248819	     -4.16813479	      2.21141953	      1.08344349	      0.91530197	      0.41972916	     13.91215400	     -4.47019223	    -10.22245106	     51.69023343	     51.69023343	      5.80850409	    -13.29999163	    -14.16252039	     28.50819762	     -6.15572047	     -4.71238184	     29.85131989	     29.85131989	      9.57684107	    -16.13433805	      5.72036282	    -11.56484778	      2.72795558	      3.02952972	     36.04337980	    -13.81818831	      9.44564946	    120.43431385	     43.43974877	      0.00000000	      0.00000000	    -11.37950176	     -6.58291047	     -2.75916547	     26.54075362	     45.57993862	      0.00000000	      0.00000000
     23.40571429	     -4.95193574	     -4.11036031	      2.00734006	      1.08291410	      0.91651893	      0.41766761	     16.02998494	     -4.98435533	     -9.83291961	     55.38019502	     55.38019502	      3.04382192	    -15.13499273	    -13.17266553	     27.67356684	     -6.06482859	     -5.04701218	     29.46462751	     29.46462751	      9.92645270	    -15.93354672	      5.31286212	    -11.59178298	      2.74279916	      2.92866407	     33.60839355	    -14.24586711	      9.56340313	    120.03053466	     43.45039857	      0.00000000	      0.00000000	    -10.10618653	     -6.69333077	     -2.79862831	     27.17605211	     45.61209673	      0.00000000	      0.00000000
     23.41714286	     -4.90760504	     -4.07491235	      1.83874144	      1.08226358	      0.91777561	      0.41567816	     18.12948157	     -5.45267431	     -9.52552446	     58.87630128	     58.87630128	      0.74939816	    -16.50208256	    -11.19518514	     26.81500988	     -5.97633700	     -5.34133333	     29.06393056	     29.06393056	     10.17638173	    -15.82603221	      4.76908541	    -11.67353910	      2.80406728	      2.97129312	     30.94426146	    -14.72575557	      9.25433641	    119.29484509	     43.49192177	      0.00000000	      0.00000000	     -8.64185145	     -6.84253316	     -2.87218204	     28.00321822	     45.65440316	      0.00000000	      0.00000000
     23.42857143	     -4.84401611	     -4.00453338	      1.68567266	      1.08154117	      0.91907517	      0.41381094	     20.21152388	     -5.92821225	     -9.20911061	     62.12207241	     62.12207241	     -1.13100699	    -17.27668473	     -9.12165122	     25.89881746	     -5.83160894	     -5.58710897	     28.57647809	     28.57647809	     10.38575353	    -15.71184404	      4.40500448	    -11.77121018	      2.80975486	      2.82005687	     28.28313393	    -14.93613074	      9.05742769	    118.13496477	     43.53798137	      0.00000000	      0.00000000	     -7.27300949	     -7.03954364	     -2.95328463	     28.81283141	     45.69395778	      0.00000000	      0.00000000
     23.44000000	     -4.75498692	     -4.05385316	      1.54450222	      1.08071172	      0.92040579	      0.41212522	     22.39682008	     -6.11098171	     -8.79256882	     65.36007607	     65.36007607	     -0.90968510	    -16.99922073	     -1.99023437	     24.96469063	     -5.79411676	     -5.72479863	     28.03656265	     28.03656265	     10.27336966	    -15.83774069	      3.22507811	    -11.94687246	      2.97618695	      2.96062868	     25.27499765	    -14.80583469	      7.22436309	    116.68527522	     43.70134236	      0.00000000	      0.00000000	     -5.82736021	     -7.27615277	     -3.13310977	     30.22579841	     45.76678988	      0.00000000	      0.00000000
